:SAMPLES-PER-SECOND 30
:FULLY-SPECIFIED
:DEGREES
550
root  -32.7877 34.9237 3.76857 -173.321 75.0789 178.998
RightUpLeg  -4.47336 -13.3571 -0.771547
RightLeg  5.51596 7.72932 0.248552
RightFoot  2.86835 0.000300234 0.473758
RightToes  -33.1369 -0.170869 -0.27045
Spine  -2.80811 1.41586 -1.52993
Spine1  -5.62916 3.13792 -2.71511
HEad  -54.9343 -44.998 26.4212
LeftShoulder1  -1.94126e-019 -3.10601e-018 -2.51263e-017
LeftArm  25.9371 4.53613 -75.6846
LeftForeArm  44.1108 -74.9679 -41.3883
LeftHand  -0.171536 -0.33303 3.54417
RightShoulder  -4.96962e-017 0 -2.36833e-017
RightArm  -15.1386 -12.4825 61.0505
RightForeArm  75.9454 1.07885 0.114574
RightHand  -0.0501763 -4.72639 -5.00725
LeftUpLeg  -5.36389 -1.16418 -0.104768
LeftLeg  1.8596 11.9938 -0.379046
LeftFoot  7.5476 -0.103932 1.73712
LeftToes  -18.8386 1.89912e-006 4.45198e-008
551
root  -32.8143 34.947 3.80087 -173.004 76.2802 179.362
RightUpLeg  -4.43649 -12.5839 -0.670952
RightLeg  5.06127 8.12224 0.196784
RightFoot  3.24397 -0.0020528 0.556233
RightToes  -33.2127 -0.170169 -0.270604
Spine  -2.93254 1.22158 -1.50724
Spine1  -5.84979 2.79497 -2.62182
HEad  -51.5661 -49.4999 25.2753
LeftShoulder1  -1.94126e-019 -3.10601e-018 -2.51263e-017
LeftArm  27.1884 2.82979 -75.6921
LeftForeArm  54.204 -77.1664 -51.038
LeftHand  -0.201849 -0.465213 4.08224
RightShoulder  -4.96962e-017 0 -2.36833e-017
RightArm  -16.2759 -11.2174 60.456
RightForeArm  75.193 1.59221 0.205973
RightHand  -0.0791526 -4.25976 -6.24234
LeftUpLeg  -4.98201 -0.3879 -0.037082
LeftLeg  1.32507 12.3886 -0.506071
LeftFoot  7.75588 -0.114591 1.8519
LeftToes  -18.9878 1.89912e-006 4.45198e-008
552
root  -32.843 34.9775 3.83222 -172.523 77.7774 179.904
RightUpLeg  -4.28058 -11.5541 -0.576196
RightLeg  4.30468 8.58331 0.0948551
RightFoot  3.81364 -0.00647336 0.680313
RightToes  -33.2805 -0.169582 -0.270763
Spine  -3.02081 1.1316 -1.48595
Spine1  -5.99222 2.65367 -2.51317
HEad  -47.935 -53.9499 23.316
LeftShoulder1  -1.94126e-019 -3.10601e-018 -2.51263e-017
LeftArm  28.2736 0.658393 -75.9545
LeftForeArm  66.9142 -78.8131 -63.3645
LeftHand  -0.209829 -0.23537 4.39206
RightShoulder  -4.96962e-017 0 -2.36833e-017
RightArm  -17.325 -9.6748 60.4654
RightForeArm  74.6679 2.60702 0.383916
RightHand  -0.14431 -3.35492 -7.46534
LeftUpLeg  -4.50303 0.540055 0.0365641
LeftLeg  0.672825 12.9208 -0.673501
LeftFoot  8.00139 -0.125471 2.00267
LeftToes  -18.9706 1.89912e-006 4.45198e-008
553
root  -32.8707 35.0127 3.86228 -171.949 79.4572 -179.434
RightUpLeg  -3.99873 -10.4367 -0.492224
RightLeg  3.30743 9.09947 -0.0573124
RightFoot  4.51831 -0.014265 0.840661
RightToes  -33.4285 -0.169141 -0.270927
Spine  -3.0986 1.03852 -1.42138
Spine1  -6.09472 2.48845 -2.30024
HEad  -43.6641 -57.594 19.612
LeftShoulder1  -1.94126e-019 -3.10601e-018 -2.51263e-017
LeftArm  28.6867 -1.58376 -76.6784
LeftForeArm  77.6734 -79.5847 -73.7063
LeftHand  -0.236006 -0.527106 4.71986
RightShoulder  -4.96962e-017 0 -2.36833e-017
RightArm  -17.9973 -7.81465 60.9222
RightForeArm  73.4802 3.94041 0.618953
RightHand  -0.243013 -2.11209 -8.34182
LeftUpLeg  -3.90852 1.61919 0.0941056
LeftLeg  -0.10421 13.4608 -0.882508
LeftFoot  8.3106 -0.137055 2.17764
LeftToes  -19.0087 1.89912e-006 4.45198e-008
554
root  -32.8987 35.0365 3.88871 -170.704 81.1117 -178.076
RightUpLeg  -3.75359 -9.29881 -0.348278
RightLeg  2.44014 9.58669 -0.204926
RightFoot  5.14855 -0.0233937 0.998666
RightToes  -33.4844 -0.168878 -0.271094
Spine  -3.14417 0.855324 -1.25524
Spine1  -6.10962 2.09379 -1.98824
HEad  -40.4324 -59.8067 16.1953
LeftShoulder1  -1.94126e-019 -3.10601e-018 -2.51263e-017
LeftArm  28.6629 -3.73597 -77.6181
LeftForeArm  85.0151 -79.8812 -80.6098
LeftHand  -0.259736 -0.7021 5.05499
RightShoulder  -4.96962e-017 0 -2.36833e-017
RightArm  -17.3945 -5.75716 61.988
RightForeArm  71.5017 5.72727 0.937397
RightHand  -0.290253 -1.474 -8.46824
LeftUpLeg  -3.73893 2.66525 0.220202
LeftLeg  0.0414909 14.0405 -0.884294
LeftFoot  8.13406 -0.141009 2.2418
LeftToes  -18.5765 1.89912e-006 4.45198e-008
555
root  -32.9202 35.0467 3.92435 -169.621 82.6316 -176.887
RightUpLeg  -3.75738 -8.19226 -0.271169
RightLeg  2.14884 9.96859 -0.26347
RightFoot  5.48907 -0.0284902 1.09798
RightToes  -33.5103 -0.168825 -0.271266
Spine  -3.20526 0.736935 -1.12504
Spine1  -6.1912 1.86716 -1.64006
HEad  -38.0325 -60.8939 13.2634
LeftShoulder1  -1.94126e-019 -3.10601e-018 -2.51263e-017
LeftArm  28.7468 -5.66197 -78.9652
LeftForeArm  84.1852 -79.8628 -79.2732
LeftHand  -0.291349 -0.777459 5.59805
RightShoulder  -4.96962e-017 0 -2.36833e-017
RightArm  -15.1188 -4.53794 63.1838
RightForeArm  68.7507 9.74428 1.66197
RightHand  -0.314201 -1.13864 -8.49528
LeftUpLeg  -3.69384 3.63428 0.284176
LeftLeg  0.438295 14.5734 -0.817013
LeftFoot  7.87386 -0.141986 2.26214
LeftToes  -18.3409 1.89912e-006 4.45198e-008
556
root  -32.9316 35.0524 3.95154 -168.338 83.9666 -175.57
RightUpLeg  -3.77433 -7.41961 -0.239368
RightLeg  1.83099 10.5219 -0.336007
RightFoot  5.79286 -0.0345847 1.21042
RightToes  -33.7531 -0.169033 -0.271441
Spine  -3.25101 0.609131 -1.05035
Spine1  -6.25783 1.63558 -1.4246
HEad  -37.3654 -60.687 12.3525
LeftShoulder1  -1.94126e-019 -3.10601e-018 -2.51263e-017
LeftArm  28.8552 -7.61266 -80.5908
LeftForeArm  75.1816 -79.4305 -70.695
LeftHand  -0.282487 -0.659354 5.52579
RightShoulder  -4.96962e-017 0 -2.36833e-017
RightArm  -12.9414 -3.16201 64.8068
RightForeArm  66.6736 12.5714 2.15328
RightHand  -0.324875 -1.20786 -8.92656
LeftUpLeg  -3.66589 4.52292 0.311948
LeftLeg  0.720622 15.0046 -0.767379
LeftFoot  7.72043 -0.143643 2.29013
LeftToes  -18.3631 1.89912e-006 4.45198e-008
557
root  -32.9279 35.0546 3.98712 -166.413 85.1784 -173.646
RightUpLeg  -3.75395 -6.72934 -0.179365
RightLeg  1.44106 11.0128 -0.426072
RightFoot  6.12545 -0.041054 1.32709
RightToes  -34.2534 -0.169496 -0.271621
Spine  -3.3172 0.532267 -1.00298
Spine1  -6.37452 1.49695 -1.26818
HEad  -37.8825 -59.7732 13.0517
LeftShoulder1  -1.94126e-019 -3.10601e-018 -2.51263e-017
LeftArm  29.3043 -9.20809 -82.2327
LeftForeArm  66.8515 -78.8219 -63.8765
LeftHand  -0.248339 -0.00998569 5.38674
RightShoulder  -4.96962e-017 0 -2.36833e-017
RightArm  -11.2199 -1.85896 66.5895
RightForeArm  65.618 14.3143 2.42893
RightHand  -0.331491 -1.17001 -9.03378
LeftUpLeg  -3.61472 5.44547 0.368068
LeftLeg  0.908493 15.29 -0.731994
LeftFoot  7.59429 -0.144358 2.30124
LeftToes  -18.5525 1.89912e-006 4.45198e-008
558
root  -32.9208 35.0554 4.02055 -163.933 86.1298 -171.163
RightUpLeg  -3.68645 -6.21046 -0.125226
RightLeg  1.05301 11.4647 -0.520595
RightFoot  6.39361 -0.0467292 1.43128
RightToes  -34.4351 -0.170165 -0.271804
Spine  -3.39329 0.456104 -0.956088
Spine1  -6.52095 1.34369 -1.1177
HEad  -38.9734 -58.645 14.4141
LeftShoulder1  -1.94126e-019 -3.10601e-018 -2.51263e-017
LeftArm  30.4674 -10.2393 -83.4603
LeftForeArm  69.3184 -79.0849 -67.9259
LeftHand  -0.24613 0.543319 5.88875
RightShoulder  -4.96962e-017 0 -2.36833e-017
RightArm  -10.6316 -0.514533 68.4322
RightForeArm  65.1457 14.8097 2.53329
RightHand  -0.325844 -1.25117 -9.04259
LeftUpLeg  -3.52838 6.0355 0.428523
LeftLeg  0.998199 15.6502 -0.72457
LeftFoot  7.44784 -0.145049 2.31377
LeftToes  -18.3337 1.89912e-006 4.45198e-008
559
root  -32.9074 35.0556 4.05668 -160.609 86.901 -167.853
RightUpLeg  -3.64544 -5.79325 -0.0613329
RightLeg  0.761159 11.8585 -0.598323
RightFoot  6.56636 -0.050978 1.51394
RightToes  -34.5102 -0.170994 -0.27199
Spine  -3.44901 0.393458 -0.881902
Spine1  -6.62515 1.21789 -0.922466
HEad  -40.0688 -57.4642 15.6457
LeftShoulder1  -1.94126e-019 -3.10601e-018 -2.51263e-017
LeftArm  31.6289 -10.8949 -84.5277
LeftForeArm  85.9579 -79.7393 -87.2101
LeftHand  -0.234169 0.70187 5.77161
RightShoulder  -4.96962e-017 0 -2.36833e-017
RightArm  -10.4982 0.891943 70.1267
RightForeArm  64.9982 14.2843 2.49284
RightHand  -0.3102 -1.4951 -9.1114
LeftUpLeg  -3.4434 6.58372 0.501304
LeftLeg  1.02017 15.8933 -0.729509
LeftFoot  7.4181 -0.146692 2.34252
LeftToes  -18.6038 1.89912e-006 4.45198e-008
560
root  -32.8944 35.0556 4.08855 -156.135 87.4334 -163.422
RightUpLeg  -3.61492 -5.5395 0.0336357
RightLeg  0.482723 12.1845 -0.673449
RightFoot  6.77267 -0.0554779 1.59901
RightToes  -34.7169 -0.171933 -0.272179
Spine  -3.47356 0.400086 -0.827382
Spine1  -6.67131 1.2269 -0.771295
HEad  -40.6744 -56.4139 16.4528
LeftShoulder1  -1.94126e-019 -3.10601e-018 -2.51263e-017
LeftArm  33.3095 -11.8169 -85.9802
LeftForeArm  109.121 -78.8901 -112.002
LeftHand  -0.218987 0.340953 5.04368
RightShoulder  -4.96962e-017 0 -2.36833e-017
RightArm  -11.0737 2.20787 71.6507
RightForeArm  64.887 12.7406 2.22378
RightHand  -0.284487 -1.96512 -9.42478
LeftUpLeg  -3.42203 6.99491 0.600829
LeftLeg  1.07089 16.0297 -0.721577
LeftFoot  7.36745 -0.146915 2.3502
LeftToes  -18.7913 1.89912e-006 4.45198e-008
